<?xml version="1.0" standalone="no"?><!DOCTYPE svg PUBLIC "-//W3C//DTD SVG 1.1//EN" "http://www.w3.org/Graphics/SVG/1.1/DTD/svg11.dtd"><svg t="1736774228285" class="icon" viewBox="0 0 1024 1024" version="1.1" xmlns="http://www.w3.org/2000/svg" p-id="1472" xmlns:xlink="http://www.w3.org/1999/xlink" width="200" height="200"><path d="M186.88 384c23.04 74.24 89.6 128 171.52 128s148.48-53.76 171.52-128H870.4c28.16 0 51.2-23.04 51.2-51.2s-23.04-51.2-51.2-51.2H529.92c-23.04-74.24-89.6-128-171.52-128s-148.48 53.76-171.52 128H128c-28.16 0-51.2 23.04-51.2 51.2s23.04 51.2 51.2 51.2h58.88z m171.52-128c43.52 0 76.8 33.28 76.8 76.8s-33.28 76.8-76.8 76.8-76.8-33.28-76.8-76.8 33.28-76.8 76.8-76.8zM896 640h-58.88c-23.04-74.24-89.6-128-171.52-128s-148.48 53.76-171.52 128H153.6c-28.16 0-51.2 23.04-51.2 51.2s23.04 51.2 51.2 51.2h340.48c23.04 74.24 89.6 128 171.52 128s148.48-53.76 171.52-128H896c28.16 0 51.2-23.04 51.2-51.2s-23.04-51.2-51.2-51.2z m-230.4 128c-43.52 0-76.8-33.28-76.8-76.8s33.28-76.8 76.8-76.8 76.8 33.28 76.8 76.8-33.28 76.8-76.8 76.8z" p-id="1473"></path></svg>